<?xml version="1.0" encoding="UTF-8" standalone="no"?>
<!DOCTYPE svg PUBLIC "-//W3C//DTD SVG 1.1//EN" "http://www.w3.org/Graphics/SVG/1.1/DTD/svg11.dtd">
<svg width="100%" height="100%" viewBox="0 0 1920 480" version="1.1" xmlns="http://www.w3.org/2000/svg" xmlns:xlink="http://www.w3.org/1999/xlink" xml:space="preserve" xmlns:serif="http://www.serif.com/" style="fill-rule:evenodd;clip-rule:evenodd;stroke-linejoin:round;stroke-miterlimit:2;">
    <g transform="matrix(5.76684,0,0,3.06134,-473.266,-136.614)">
        <rect x="82.067" y="44.625" width="332.938" height="156.794" style="fill:rgb(0,130,201);"/>
    </g>
    <g transform="matrix(0.800977,0,0,0.800977,141.479,0.11345)">
        <g id="Subline" transform="matrix(7.27474,0,0,7.27474,-4807.36,-252.21)">
            <path d="M749.913,88.783L749.913,89.685L748.401,89.685L748.401,95.333L747.347,95.333L747.347,89.685L746.058,89.685L746.058,88.783L747.347,88.783L747.347,87.91C747.347,86.773 748.255,86.193 749.21,86.193C749.708,86.193 750.036,86.298 750.194,86.369L749.901,87.271C749.79,87.236 749.626,87.171 749.333,87.171C748.683,87.171 748.401,87.511 748.401,88.144L748.401,88.783L749.913,88.783ZM753.622,95.474C751.841,95.474 750.64,94.121 750.64,92.099C750.64,90.048 751.841,88.701 753.622,88.701C755.409,88.701 756.616,90.048 756.616,92.099C756.616,94.121 755.409,95.474 753.622,95.474ZM753.622,94.531C754.946,94.531 755.55,93.388 755.55,92.099C755.55,90.798 754.946,89.644 753.622,89.644C752.315,89.644 751.712,90.792 751.712,92.099C751.712,93.388 752.315,94.531 753.622,94.531ZM758.151,95.333L758.151,88.783L759.171,88.783L759.171,89.79L759.241,89.79C759.481,89.128 760.161,88.689 760.94,88.689C761.093,88.689 761.351,88.701 761.474,88.706L761.474,89.767C761.409,89.755 761.122,89.708 760.841,89.708C759.897,89.708 759.206,90.347 759.206,91.232L759.206,95.333L758.151,95.333ZM769.712,95.451C767.474,95.451 765.833,93.74 765.833,90.974C765.833,88.203 767.474,86.486 769.712,86.486C771.95,86.486 773.579,88.203 773.579,90.974C773.579,93.74 771.95,95.451 769.712,95.451ZM769.712,94.419C771.27,94.419 772.495,93.206 772.495,90.974C772.495,88.73 771.27,87.517 769.712,87.517C768.142,87.517 766.917,88.736 766.917,90.974C766.917,93.201 768.142,94.419 769.712,94.419ZM777.44,95.415C776.116,95.415 775.22,94.601 775.22,92.943L775.22,88.783L776.274,88.783L776.274,92.855C776.274,93.863 776.843,94.466 777.757,94.466C778.694,94.466 779.403,93.828 779.403,92.708L779.403,88.783L780.464,88.783L780.464,95.333L779.444,95.333L779.444,94.109C779.017,95.064 778.302,95.415 777.44,95.415ZM784.893,88.783L784.893,89.685L783.546,89.685L783.546,93.634C783.546,94.22 783.763,94.478 784.319,94.478C784.454,94.478 784.683,94.443 784.858,94.408L785.075,95.298C784.858,95.374 784.559,95.415 784.29,95.415C783.159,95.415 782.491,94.789 782.491,93.716L782.491,89.685L781.507,89.685L781.507,88.783L782.491,88.783L782.491,87.224L783.546,87.224L783.546,88.783L784.893,88.783ZM787.296,86.603L787.296,95.333L786.241,95.333L786.241,86.603L787.296,86.603ZM791.813,95.474C790.032,95.474 788.831,94.121 788.831,92.099C788.831,90.048 790.032,88.701 791.813,88.701C793.601,88.701 794.808,90.048 794.808,92.099C794.808,94.121 793.601,95.474 791.813,95.474ZM791.813,94.531C793.138,94.531 793.741,93.388 793.741,92.099C793.741,90.798 793.138,89.644 791.813,89.644C790.507,89.644 789.903,90.792 789.903,92.099C789.903,93.388 790.507,94.531 791.813,94.531ZM799.009,95.474C797.227,95.474 796.026,94.121 796.026,92.099C796.026,90.048 797.227,88.701 799.009,88.701C800.796,88.701 802.003,90.048 802.003,92.099C802.003,94.121 800.796,95.474 799.009,95.474ZM799.009,94.531C800.333,94.531 800.936,93.388 800.936,92.099C800.936,90.798 800.333,89.644 799.009,89.644C797.702,89.644 797.099,90.792 797.099,92.099C797.099,93.388 797.702,94.531 799.009,94.531ZM803.538,95.333L803.538,86.603L804.593,86.603L804.593,91.671L804.722,91.671L807.522,88.783L808.829,88.783L806.087,91.595L809.034,95.333L807.681,95.333L805.284,92.269L804.593,92.919L804.593,95.333L803.538,95.333Z" style="fill:white;"/>
        </g>
        <g id="Headline" transform="matrix(1.64228,0,0,1.64228,54.3089,40.2569)">
            <path d="M344.212,162.32L355.155,162.32L355.155,113.622C355.155,109.497 354.754,100.961 354.295,90.018C360.941,101.878 364.207,107.607 368.103,113.737L399.04,162.32L411.988,162.32L411.988,76.956L401.103,76.956L401.103,129.32C401.103,133.904 401.16,141.18 401.848,149.43C397.952,141.695 394.056,135.164 391.764,131.555L357.045,76.956L344.212,76.956L344.212,162.32Z" style="fill:white;fill-rule:nonzero;"/>
            <path d="M467.16,163.466C484.634,163.466 498.613,152.81 501.592,135.451L490.707,135.451C488.301,147.081 478.332,153.383 467.16,153.383C451.863,153.383 439.889,141.523 439.889,119.695C439.889,97.81 451.806,85.893 467.16,85.893C478.275,85.893 488.301,92.138 490.707,103.826L501.592,103.826C498.556,86.237 484.462,75.81 467.16,75.81C445.275,75.81 429.29,92.596 429.29,119.695C429.29,146.737 445.275,163.466 467.16,163.466Z" style="fill:white;fill-rule:nonzero;"/>
            <path d="M585.868,163.466C603.342,163.466 617.322,152.81 620.301,135.451L609.415,135.451C607.009,147.081 597.04,153.383 585.868,153.383C570.572,153.383 558.598,141.523 558.598,119.695C558.598,97.81 570.514,85.893 585.868,85.893C596.983,85.893 607.009,92.138 609.415,103.826L620.301,103.826C617.264,86.237 603.17,75.81 585.868,75.81C563.983,75.81 547.999,92.596 547.999,119.695C547.999,146.737 563.983,163.466 585.868,163.466Z" style="fill:white;fill-rule:nonzero;"/>
            <path d="M661.837,163.695C679.311,163.695 691.113,150.461 691.113,130.695C691.113,110.643 679.311,97.466 661.837,97.466C644.42,97.466 632.676,110.643 632.676,130.695C632.676,150.461 644.42,163.695 661.837,163.695ZM661.837,154.471C649.061,154.471 643.16,143.299 643.16,130.695C643.16,117.919 649.061,106.69 661.837,106.69C674.785,106.69 680.686,117.977 680.686,130.695C680.686,143.299 674.785,154.471 661.837,154.471Z" style="fill:white;fill-rule:nonzero;"/>
            <path d="M716.436,123.935C716.436,112.992 723.368,106.747 732.592,106.747C741.53,106.747 747.03,112.648 747.03,122.503L747.03,162.32L757.342,162.32L757.342,121.643C757.342,105.43 748.634,97.466 735.686,97.466C727.092,97.466 720.217,101.076 716.092,110.128L716.035,98.268L706.124,98.268L706.124,162.32L716.436,162.32L716.436,123.935Z" style="fill:white;fill-rule:nonzero;"/>
            <path d="M785.759,123.935C785.759,112.992 792.691,106.747 801.915,106.747C810.853,106.747 816.353,112.648 816.353,122.503L816.353,162.32L826.665,162.32L826.665,121.643C826.665,105.43 817.957,97.466 805.009,97.466C796.415,97.466 789.54,101.076 785.415,110.128L785.358,98.268L775.447,98.268L775.447,162.32L785.759,162.32L785.759,123.935Z" style="fill:white;fill-rule:nonzero;"/>
            <path d="M871.697,163.695C884.816,163.695 894.384,157.107 897.363,147.424L887.394,144.674C884.988,151.206 879.316,154.529 871.754,154.529C860.41,154.529 852.618,147.195 852.103,133.789L898.394,133.789L898.394,129.492C898.394,105.831 884.072,97.466 870.493,97.466C853.019,97.466 841.676,111.159 841.676,130.81C841.676,150.518 853.134,163.695 871.697,163.695ZM852.16,125.081C852.79,115.284 859.493,106.633 870.493,106.633C881.035,106.633 886.936,114.195 887.91,125.081L852.16,125.081Z" style="fill:white;fill-rule:nonzero;"/>
            <path d="M939.243,163.695C951.79,163.695 961.988,156.878 965.426,145.477L955.572,142.669C953.681,149.602 947.837,154.471 939.243,154.471C926.467,154.471 920.566,143.299 920.566,130.695C920.566,117.919 926.467,106.69 939.243,106.69C947.665,106.69 953.394,111.388 955.285,117.977L965.197,115.169C961.702,103.997 951.618,97.466 939.243,97.466C921.827,97.466 910.082,110.643 910.082,130.695C910.082,150.461 921.827,163.695 939.243,163.695Z" style="fill:white;fill-rule:nonzero;"/>
            <path d="M1005.42,98.268L992.238,98.268L992.238,83.029L981.926,83.029L981.926,98.268L972.301,98.268L972.301,107.091L981.926,107.091L981.926,146.508C981.926,156.992 988.457,163.122 999.514,163.122C1002.15,163.122 1005.07,162.721 1007.19,161.977L1005.07,153.268C1003.35,153.612 1001.12,153.956 999.801,153.956C994.358,153.956 992.238,151.435 992.238,145.706L992.238,107.091L1005.42,107.091L1005.42,98.268Z" style="fill:white;fill-rule:nonzero;"/>
            <path d="M1043.51,163.695C1060.99,163.695 1072.79,150.461 1072.79,130.695C1072.79,110.643 1060.99,97.466 1043.51,97.466C1026.1,97.466 1014.35,110.643 1014.35,130.695C1014.35,150.461 1026.1,163.695 1043.51,163.695ZM1043.51,154.471C1030.74,154.471 1024.84,143.299 1024.84,130.695C1024.84,117.919 1030.74,106.69 1043.51,106.69C1056.46,106.69 1062.36,117.977 1062.36,130.695C1062.36,143.299 1056.46,154.471 1043.51,154.471Z" style="fill:white;fill-rule:nonzero;"/>
            <path d="M1087.8,162.32L1098.11,162.32L1098.11,122.216C1098.11,113.565 1104.87,107.32 1114.1,107.32C1116.85,107.32 1119.65,107.779 1120.29,107.893L1120.29,97.523C1119.08,97.466 1116.56,97.352 1115.07,97.352C1107.45,97.352 1100.81,101.648 1098.46,108.122L1097.77,108.122L1097.77,98.268L1087.8,98.268L1087.8,162.32Z" style="fill:white;fill-rule:nonzero;"/>
        </g>
        <g id="Icon" transform="matrix(1.50747,0,0,1.50747,110.955,88.8887)">
            <g id="Background" transform="matrix(0.999753,0,0,1.09446,0.238734,-0.570927)">
                <path d="M273.829,48.153L273.829,208.805C273.829,232.046 253.173,250.914 227.731,250.914L51.86,250.914C26.418,250.914 5.763,232.046 5.763,208.805L5.763,48.153C5.763,24.912 26.418,6.044 51.86,6.044L227.731,6.044C253.173,6.044 273.829,24.912 273.829,48.153Z" style="fill:white;"/>
            </g>
            <g id="Logo" transform="matrix(0.1,0,0,-0.1,-0.333632,268.144)">
                <path d="M885,1866C1005,1893 1273,1861 1320,1814C1339,1796 1327,1784 1201,1699C1109,1637 1105,1636 1034,1633C925,1629 858,1600 784,1526C709,1451 685,1391 686,1280C686,1221 691,1193 712,1148C746,1076 815,1006 888,972C939,948 957,945 1052,945C1121,945 1163,949 1171,957C1180,966 1169,1009 1125,1141C1073,1299 1068,1320 1072,1381C1078,1456 1111,1528 1164,1578C1197,1610 1339,1710 1351,1710C1366,1710 1450,1473 1450,1431C1450,1418 1431,1405 1385,1385C1316,1356 1300,1339 1300,1294C1300,1279 1334,1163 1376,1036L1452,806L1428,785C1414,773 1358,749 1304,730C1220,702 1186,697 1083,692C946,687 868,698 776,737C608,807 490,936 437,1105C409,1196 407,1366 434,1455C496,1666 663,1817 885,1866ZM1635,1866C1680,1875 1741,1878 1809,1875C2041,1864 2222,1754 2323,1563C2375,1464 2393,1384 2393,1265C2393,1094 2337,966 2214,850C2065,711 1863,659 1665,710C1527,745 1527,766 1660,866C1751,935 1758,938 1821,942C1936,951 2042,1026 2097,1138C2121,1187 2125,1208 2125,1280C2125,1351 2121,1374 2099,1421C2063,1498 2008,1556 1936,1593C1880,1622 1867,1625 1778,1625C1722,1625 1677,1620 1670,1614C1663,1607 1677,1555 1719,1432C1791,1227 1798,1184 1776,1105C1755,1036 1700,973 1611,918C1563,888 1550,883 1541,894C1526,911 1450,1138 1450,1163C1450,1175 1463,1186 1488,1196C1586,1235 1601,1244 1607,1268C1611,1284 1586,1370 1530,1535C1485,1669 1450,1786 1452,1796C1456,1816 1532,1845 1635,1866Z" style="fill:rgb(0,130,201);"/>
            </g>
        </g>
    </g>
</svg>
